:SAMPLES-PER-SECOND 30
:FULLY-SPECIFIED
:DEGREES
82
root  37.0918 38.1855 1.31257 -77.5902 -82.2619 80.2983
RightUpLeg  -33.2108 -15.3392 -0.328443
RightLeg  29.7274 -8.90358 -5.68762
RightFoot  -3.59867 0.292105 -4.5374
RightToes  -4.65663e-010 0 -3.6325e-017
Spine  29.1653 -2.59547 0.290436
Spine1  8.72526 -3.83312 3.70011
HEad  -15.2527 0.823682 -6.79629
LeftShoulder1  9.47341 -13.7751 -47.8605
LeftArm  -7.08581 -0.721686 -29.254
LeftForeArm  42.6416 -38.3906 -6.263
LeftHand  -0.244104 0.0205437 5.32207
RightShoulder  5.7844 10.1112 36.4919
RightArm  15.0742 -31.8562 39.2127
RightForeArm  -5.0013 24.3133 5.4967
RightHand  -1.38289 3.14825 -18.8818
LeftUpLeg  6.18482 8.70894 -9.00955
LeftLeg  14.7576 12.7503 0.322494
LeftFoot  -24.012 -0.168674 -2.79134
LeftToes  -5.82109e-011 -4.83791e-012 -1.00937e-011
83
root  35.5268 37.8046 1.55166 -85.5793 -84.6494 89.8681
RightUpLeg  -34.9757 -12.2963 1.15311
RightLeg  35.4272 -9.73011 -7.60436
RightFoot  -8.10961 0.0322962 -2.83958
RightToes  -4.65663e-010 0 -3.6325e-017
Spine  30.3305 -3.84283 5.65054
Spine1  7.47056 -3.33766 2.47118
HEad  -17.7167 1.09739 -8.86802
LeftShoulder1  9.84741 -14.1593 -48.6757
LeftArm  -6.74437 -1.07337 -29.9437
LeftForeArm  42.7838 -40.2006 -6.76009
LeftHand  -0.244104 0.0205437 5.32207
RightShoulder  6.01 10.5029 36.9019
RightArm  12.5311 -28.0312 37.2247
RightForeArm  -6.29875 21.5897 5.45801
RightHand  -1.91115 5.28928 -20.8249
LeftUpLeg  5.21525 14.1332 -6.82274
LeftLeg  18.8121 8.07995 2.54051
LeftFoot  -26.7984 -0.509299 -4.88452
LeftToes  -5.82109e-011 -4.83791e-012 -1.00937e-011
84
root  33.916 37.3411 1.6835 -101.274 -86.435 106.811
RightUpLeg  -36.0151 -10.1916 2.48563
RightLeg  40.6061 -9.75465 -9.12005
RightFoot  -12.437 -0.0959867 -0.761123
RightToes  -4.65663e-010 0 -3.6325e-017
Spine  31.8471 -4.68331 9.54008
Spine1  6.29901 -2.96 2.20732
HEad  -20.4127 1.62313 -10.7517
LeftShoulder1  10.176 -14.583 -49.1231
LeftArm  -6.41396 -1.05283 -30.8306
LeftForeArm  42.1605 -41.7527 -7.25234
LeftHand  -0.244104 0.0205437 5.32207
RightShoulder  6.33777 11.0804 37.4294
RightArm  7.67347 -23.2843 34.964
RightForeArm  -7.17895 19.8953 5.8943
RightHand  -2.65719 7.64284 -23.6522
LeftUpLeg  2.47528 14.674 -4.99657
LeftLeg  27.2074 7.07673 4.42261
LeftFoot  -26.8099 -1.07005 -9.21574
LeftToes  -5.82109e-011 -4.83791e-012 -1.00937e-011
85
root  32.3174 36.7587 1.69417 -121.714 -87.3752 127.723
RightUpLeg  -36.4518 -9.35757 3.55215
RightLeg  46.0755 -9.26574 -10.4725
RightFoot  -16.4373 -0.136788 -0.48113
RightToes  -4.65663e-010 0 -3.6325e-017
Spine  33.7935 -5.13988 11.8109
Spine1  5.33461 -2.73725 2.8447
HEad  -23.0522 2.09929 -11.7921
LeftShoulder1  10.4938 -15.0556 -49.3682
LeftArm  -6.20766 -1.12302 -31.6611
LeftForeArm  41.9632 -42.629 -7.52985
LeftHand  -0.244104 0.0205437 5.32207
RightShoulder  6.78 11.6911 38.5474
RightArm  3.47333 -18.062 32.2086
RightForeArm  -11.0635 20.9733 5.74745
RightHand  -3.50882 9.74507 -26.7611
LeftUpLeg  -2.89804 12.274 -3.80262
LeftLeg  41.4555 7.2205 7.20832
LeftFoot  -21.46 -0.894129 -11.2493
LeftToes  -5.82109e-011 -4.83791e-012 -1.00937e-011
86
root  30.7267 36.0129 1.63863 -157.857 -87.8731 163.543
RightUpLeg  -36.1694 -9.11154 5.02968
RightLeg  51.8936 -8.53837 -11.8737
RightFoot  -20.7656 -0.199203 -0.737562
RightToes  -4.65663e-010 0 -3.6325e-017
Spine  35.4633 -5.50779 13.8356
Spine1  4.77526 -2.39217 3.52473
HEad  -25.3002 2.36027 -12.1286
LeftShoulder1  10.6716 -15.3447 -49.4347
LeftArm  -6.11136 -1.4371 -32.4866
LeftForeArm  42.75 -41.8144 -7.23807
LeftHand  -0.244104 0.0205437 5.32207
RightShoulder  7.2094 12.1048 40.0455
RightArm  -0.797669 -11.6852 29.1908
RightForeArm  -14.7293 23.6246 5.7629
RightHand  -4.37433 11.7131 -29.3911
LeftUpLeg  -10.3971 8.94813 -2.59857
LeftLeg  58.8842 5.64857 10.5002
LeftFoot  -13.2385 -0.0668166 -7.39945
LeftToes  -5.82109e-011 -4.83791e-012 -1.00937e-011
87
root  29.088 35.1785 1.57635 151.417 -86.9034 -146.434
RightUpLeg  -34.9125 -9.043 7.17444
RightLeg  57.1958 -7.5586 -12.8653
RightFoot  -25.5251 -0.187798 -0.139604
RightToes  -4.65663e-010 0 -3.6325e-017
Spine  36.1587 -5.90547 16.3179
Spine1  4.76297 -1.83142 3.77721
HEad  -27.181 2.61181 -12.6179
LeftShoulder1  10.6567 -15.3601 -49.3249
LeftArm  -5.92781 -1.23257 -32.881
LeftForeArm  43.4883 -38.6732 -6.30072
LeftHand  -0.244104 0.0205437 5.32207
RightShoulder  7.43721 12.2504 41.0074
RightArm  -6.13257 -3.43346 27.0088
RightForeArm  -13.954 25.7672 6.21096
RightHand  -4.99829 13.1973 -30.8164
LeftUpLeg  -18.7469 5.31499 -0.904889
LeftLeg  75.349 2.60421 12.5316
LeftFoot  -8.59627 0.10315 -1.228
LeftToes  -5.82109e-011 -4.83791e-012 -1.00937e-011
